<?xml version="1.0" encoding="iso-8859-1"?>
<!-- Generator: Adobe Illustrator 19.0.0, SVG Export Plug-In . SVG Version: 6.00 Build 0)  -->
<svg version="1.1" id="Layer_1" xmlns="http://www.w3.org/2000/svg" xmlns:xlink="http://www.w3.org/1999/xlink" x="0px" y="0px"
	 viewBox="0 0 512 512" style="enable-background:new 0 0 512 512;" xml:space="preserve">
<g>
	<g>
		<path d="M239.914,209.97c-5.581,0-10.109,4.527-10.109,10.109c0,5.581,4.527,10.12,10.109,10.12
			c5.581,0,10.109-4.538,10.109-10.12C250.023,214.497,245.495,209.97,239.914,209.97z"/>
	</g>
</g>
<g>
	<g>
		<path d="M272.09,209.97c-5.592,0-10.109,4.527-10.109,10.109c0,5.581,4.517,10.12,10.109,10.12c5.581,0,10.109-4.538,10.109-10.12
			C282.199,214.497,277.671,209.97,272.09,209.97z"/>
	</g>
</g>
<g>
	<g>
		<path d="M175.551,269.031c-24.154-11.722-43.78-30.348-56.738-53.845c-1.344-2.42-3.624-4.194-6.313-4.893
			s-5.538-0.258-7.893,1.204c-14.023,8.743-26.487,19.615-37.026,32.348c-3.57,4.291-2.979,10.668,1.323,14.238
			c4.302,3.56,10.679,2.957,14.238-1.333c6.958-8.41,14.884-15.884,23.648-22.315c14.787,22.713,35.327,40.844,59.932,52.791
			c1.42,0.688,2.925,1.011,4.409,1.011c3.753,0,7.356-2.086,9.098-5.689C182.67,277.526,180.573,271.472,175.551,269.031z"/>
	</g>
</g>
<g>
	<g>
		<path d="M239.914,209.97c-5.581,0-10.109,4.527-10.109,10.109c0,5.581,4.527,10.12,10.109,10.12
			c5.581,0,10.109-4.538,10.109-10.12C250.023,214.497,245.495,209.97,239.914,209.97z"/>
	</g>
</g>
<g>
	<g>
		<path d="M272.09,209.97c-5.592,0-10.109,4.527-10.109,10.109c0,5.581,4.517,10.12,10.109,10.12c5.581,0,10.109-4.538,10.109-10.12
			C282.199,214.497,277.671,209.97,272.09,209.97z"/>
	</g>
</g>
<g>
	<g>
		<g>
			<path d="M511.539,284.388c-19.368-62.137-68.148-110.229-130.489-128.64c-0.161-0.054-0.355-0.097-0.516-0.14
				c-2.785-0.677-5.732-0.14-8.098,1.484c-2.377,1.624-3.936,4.173-4.312,7.022c-0.613,4.635-1.602,9.281-2.925,13.776
				c-7.926,26.853-27.971,48.146-53.727,57.91v-7.41c0-7.947-1.688-15.69-4.893-22.799c11.593-10.679,18.604-25.702,19.088-41.715
				c0.387-12.238-2.99-24.111-9.754-34.359c-3.086-4.656-9.356-5.947-14.012-2.871c-13.184,8.711-22.186,22.024-25.358,37.489
				c-0.839,4.108-1.226,8.227-1.204,12.324c-6.087-2.269-12.604-3.484-19.282-3.484c-6.678,0-13.184,1.215-19.271,3.484
				c0.022-4.097-0.376-8.216-1.215-12.324c-3.162-15.464-12.163-28.778-25.347-37.489c-4.667-3.076-10.937-1.785-14.002,2.871
				c-6.764,10.249-10.141,22.121-9.775,34.359c0.495,16.013,7.496,31.036,19.099,41.715c-3.033,6.711-4.689,13.959-4.872,21.411
				c-0.065,0.452-0.108,8.797-0.108,8.797c-25.777-9.754-45.844-31.047-53.77-57.91c-1.323-4.495-2.301-9.141-2.925-13.776
				c-0.366-2.85-1.957-5.398-4.323-7.022c-2.366-1.613-5.345-2.151-8.13-1.473c-0.151,0.043-0.312,0.075-0.462,0.129
				C99.778,164.953,72,181.579,49.589,203.679c-22.401,22.078-39.446,49.641-49.124,80.709c-0.032,0.086-0.054,0.151-0.075,0.237
				c-1.516,5.313,1.527,10.872,6.829,12.464c2.301,0.688,4.656,0.516,6.721-0.333c30.24-11.421,64.18,3.807,75.73,34.036
				c1.602,4.205,5.818,6.829,10.292,6.463c1.022-0.086,2.011-0.333,2.936-0.699c18.927-7.184,39.521-6.592,58.018,1.678
				c18.551,8.291,32.757,23.315,40.005,42.285c1.549,4.033,5.377,6.506,9.453,6.506c1.194,0,2.42-0.215,3.603-0.667
				c2.129-0.817,3.828-2.301,4.947-4.097l0.011,0.011c8.023-12.819,21.82-20.476,36.929-20.476c15.099,0,28.896,7.646,36.908,20.465
				c1.914,3.076,5.216,4.764,8.582,4.764c1.839,0,3.689-0.495,5.345-1.538c1.774-1.097,3.076-2.656,3.861-4.431h0.011
				c0-0.011,0-0.011,0-0.021c0.011-0.021,0.022-0.043,0.032-0.065c0.075-0.172,0.14-0.333,0.215-0.495h0.011
				c0.022-0.065,0.032-0.129,0.054-0.194c15.238-38.596,59.319-58.448,98.184-43.737c0.925,0.376,1.925,0.624,2.968,0.71
				c4.495,0.376,8.689-2.258,10.292-6.463c11.561-30.24,45.5-45.457,75.751-34.026c2.258,0.914,4.85,1.032,7.313,0.118
				C510.442,295.012,513.141,289.528,511.539,284.388z M208.05,151.694c3.796,4.753,6.452,10.367,7.7,16.497
				c1.258,6.13,1.032,12.335-0.591,18.185c-5.194-6.506-8.238-14.604-8.496-23.121C206.544,159.308,207.017,155.425,208.05,151.694z
				 M291.243,352.256L291.243,352.256c-10.281-6.883-22.497-10.679-35.381-10.679c-16.346,0-31.638,6.119-43.242,16.873
				c-10.055-16.991-25.057-30.466-43.446-38.682c-20.572-9.184-43.177-10.894-64.61-5.011
				c-15.238-28.799-46.683-45.027-78.429-41.564c18.895-43.866,54.91-78.063,99.926-94.539c0.409,1.667,0.86,3.323,1.344,4.968
				c10.453,35.435,38.101,62.976,73.16,73.525v43.521c0,5.581,4.527,10.109,10.109,10.109c5.581,0,10.109-4.527,10.109-10.109
				v-72.278h0.086c0-6.958,2.011-13.658,5.829-19.422c0.086-0.108,0.161-0.226,0.247-0.344l0.054-0.075
				c0.011-0.032,0.032-0.065,0.054-0.086c6.581-9.55,17.422-15.26,29.004-15.26c11.647,0,22.508,5.743,29.09,15.378
				c0.054,0.086,0.118,0.172,0.183,0.269c3.871,5.786,5.915,12.539,5.915,19.54V352.256z M296.975,186.354
				c-3.302-11.969-0.656-24.939,7.108-34.639c1.022,3.721,1.495,7.603,1.366,11.539
				C305.191,171.761,302.147,179.848,296.975,186.354z M407.429,314.768c-35.166-9.603-72.073,1.774-95.958,27.52v-85.15
				c35.037-10.56,62.664-38.101,73.117-73.525c0.484-1.635,0.936-3.291,1.344-4.958c45.016,16.475,81.032,50.662,99.937,94.539
				C454.112,269.741,422.668,285.958,407.429,314.768z"/>
			<path d="M444.423,243.845c-10.55-12.733-23.014-23.605-37.037-32.348c-2.355-1.463-5.205-1.904-7.893-1.204
				c-2.678,0.699-4.958,2.473-6.302,4.893c-12.969,23.498-32.595,42.124-56.749,53.845c-5.022,2.441-7.119,8.496-4.678,13.518
				c1.742,3.603,5.356,5.689,9.109,5.689c1.473,0,2.979-0.323,4.409-1.011c24.594-11.948,45.145-30.079,59.932-52.791
				c8.754,6.431,16.68,13.905,23.637,22.315c3.56,4.291,9.947,4.893,14.238,1.333c1.882-1.562,3.054-3.661,3.478-5.888
				c0.243-1.272,0.242-2.586-0.011-3.866C446.242,246.73,445.535,245.186,444.423,243.845z"/>
		</g>
	</g>
</g>
<g>
	<g>
		<path d="M175.551,269.031c-24.154-11.722-43.78-30.348-56.738-53.845c-1.344-2.42-3.624-4.194-6.313-4.893
			s-5.538-0.258-7.893,1.204c-14.023,8.743-26.487,19.615-37.026,32.348c-3.57,4.291-2.979,10.668,1.323,14.238
			c4.302,3.56,10.679,2.957,14.238-1.333c6.958-8.41,14.884-15.884,23.648-22.315c14.787,22.713,35.327,40.844,59.932,52.791
			c1.42,0.688,2.925,1.011,4.409,1.011c3.753,0,7.356-2.086,9.098-5.689C182.67,277.526,180.573,271.472,175.551,269.031z"/>
	</g>
</g>
<g>
	<g>
		<path d="M239.914,209.97c-5.581,0-10.109,4.527-10.109,10.109c0,5.581,4.527,10.12,10.109,10.12
			c5.581,0,10.109-4.538,10.109-10.12C250.023,214.497,245.495,209.97,239.914,209.97z"/>
	</g>
</g>
<g>
	<g>
		<path d="M272.09,209.97c-5.592,0-10.109,4.527-10.109,10.109c0,5.581,4.517,10.12,10.109,10.12c5.581,0,10.109-4.538,10.109-10.12
			C282.199,214.497,277.671,209.97,272.09,209.97z"/>
	</g>
</g>
<g id="SVGCleanerId_2">
	<g>
		<path d="M444.423,243.845c-10.55-12.733-23.014-23.605-37.037-32.348c-2.355-1.463-5.205-1.903-7.893-1.204
			c-2.678,0.699-4.958,2.473-6.302,4.893c-12.969,23.498-32.595,42.124-56.749,53.845c-5.022,2.441-7.119,8.496-4.678,13.518
			c1.742,3.603,5.355,5.689,9.109,5.689c1.473,0,2.979-0.323,4.409-1.011c24.594-11.948,45.145-30.079,59.932-52.791
			c8.754,6.431,16.68,13.905,23.637,22.315c3.56,4.291,9.947,4.893,14.238,1.333C447.391,254.513,447.983,248.136,444.423,243.845z"
			/>
	</g>
</g>
<g>
	<g>
		<path d="M444.423,243.845c-10.55-12.733-23.014-23.605-37.037-32.348c-2.355-1.463-5.205-1.903-7.893-1.204
			c-2.678,0.699-4.958,2.473-6.302,4.893c-12.969,23.498-32.595,42.124-56.749,53.845c-5.022,2.441-7.119,8.496-4.678,13.518
			c1.742,3.603,5.355,5.689,9.109,5.689c1.473,0,2.979-0.323,4.409-1.011c24.594-11.948,45.145-30.079,59.932-52.791
			c8.754,6.431,16.68,13.905,23.637,22.315c3.56,4.291,9.947,4.893,14.238,1.333C447.391,254.513,447.983,248.136,444.423,243.845z"
			/>
	</g>
</g>
<g>
	<g>
		<path d="M175.551,269.031c-24.154-11.722-43.78-30.348-56.738-53.845c-1.344-2.42-3.624-4.194-6.313-4.893
			s-5.538-0.258-7.893,1.204c-14.023,8.743-26.487,19.615-37.026,32.348c-3.57,4.291-2.979,10.668,1.323,14.238
			c4.302,3.56,10.679,2.957,14.238-1.333c6.958-8.41,14.884-15.884,23.648-22.315c14.787,22.713,35.327,40.844,59.932,52.791
			c1.42,0.688,2.925,1.011,4.409,1.011c3.753,0,7.356-2.086,9.098-5.689C182.67,277.526,180.573,271.472,175.551,269.031z"/>
	</g>
</g>
<g>
</g>
<g>
</g>
<g>
</g>
<g>
</g>
<g>
</g>
<g>
</g>
<g>
</g>
<g>
</g>
<g>
</g>
<g>
</g>
<g>
</g>
<g>
</g>
<g>
</g>
<g>
</g>
<g>
</g>
</svg>
