<?xml version="1.0" encoding="iso-8859-1"?>
<!-- Generator: Adobe Illustrator 19.0.0, SVG Export Plug-In . SVG Version: 6.00 Build 0)  -->
<svg version="1.1" id="Layer_1" xmlns="http://www.w3.org/2000/svg" xmlns:xlink="http://www.w3.org/1999/xlink" x="0px" y="0px"
	 viewBox="0 0 512 512" style="enable-background:new 0 0 512 512;" xml:space="preserve">
<g>
	<g>
		<path d="M460.8,128c-15.923,0-29.978,7.424-39.364,18.825c-2.731-0.188-5.862-0.734-8.397-0.734
			c-60.356-0.008-79.428,46.729-88.516,81.886c-0.811,3.14-1.51,6.75-2.261,10.138c-7.475-75.401-17.698-124.297-26.581-154.931
			c7.1-8.781,11.52-19.814,11.52-31.983C307.2,22.921,284.279,0,256,0c-28.279,0-51.2,22.921-51.2,51.2
			c0,12.186,4.437,23.228,11.546,32.017c-8.883,30.609-19.115,79.462-26.598,154.94c-0.751-3.405-1.451-7.023-2.27-10.18
			c-9.097-35.157-28.16-81.894-88.516-81.886c-2.526,0-5.666,0.546-8.397,0.734C81.178,135.424,67.123,128,51.2,128
			C22.921,128,0,150.921,0,179.2s22.921,51.2,51.2,51.2c10.982,0,21.103-3.524,29.44-9.421
			c5.137,12.058,10.291,31.002,14.123,60.075C102.4,338.859,102.4,413.867,102.4,486.4c0,14.14,11.46,25.6,25.6,25.6h256
			c14.14,0,25.6-11.46,25.6-25.6c0-72.533,0-147.541,7.629-205.338c3.84-29.073,8.994-48.017,14.123-60.075
			c8.346,5.888,18.466,9.412,29.449,9.412c28.279,0,51.2-22.921,51.2-51.2S489.079,128,460.8,128z M51.2,204.8
			c-14.114,0-25.6-11.486-25.6-25.6s11.486-25.6,25.6-25.6s25.6,11.486,25.6,25.6S65.314,204.8,51.2,204.8z M128,486.4
			c0-111.872-0.205-236.8-29.892-286.771c2.731-6.263,4.292-13.158,4.292-20.429c0-2.509-0.393-4.915-0.742-7.322
			C162.347,173.73,179.2,237.764,179.2,486.4C153.6,486.4,153.6,486.4,128,486.4z M256,25.6c14.114,0,25.6,11.486,25.6,25.6
			S270.114,76.8,256,76.8s-25.6-11.486-25.6-25.6S241.886,25.6,256,25.6z M204.8,486.4c0-217.805,18.901-331.486,33.732-387.26
			c5.478,1.997,11.307,3.26,17.468,3.26s11.998-1.263,17.468-3.26C288.299,154.906,307.2,268.604,307.2,486.4
			C281.6,486.4,230.4,486.4,204.8,486.4z M384,486.4c-25.6,0-25.6,0-51.2,0c0-248.636,16.853-312.67,77.542-314.522
			c-0.35,2.406-0.742,4.813-0.742,7.322c0,7.27,1.562,14.165,4.292,20.429C384.205,249.6,384,374.528,384,486.4z M460.8,204.8
			c-14.114,0-25.6-11.486-25.6-25.6s11.486-25.6,25.6-25.6c14.114,0,25.6,11.486,25.6,25.6S474.914,204.8,460.8,204.8z"/>
	</g>
</g>
<g>
</g>
<g>
</g>
<g>
</g>
<g>
</g>
<g>
</g>
<g>
</g>
<g>
</g>
<g>
</g>
<g>
</g>
<g>
</g>
<g>
</g>
<g>
</g>
<g>
</g>
<g>
</g>
<g>
</g>
</svg>
